<svg id="Layer_1" data-name="Layer 1" xmlns="http://www.w3.org/2000/svg" viewBox="0 0 1619.91 331.89"><defs><style>.cls-1{fill:#fff;}</style></defs><title>Artboard 27</title><path class="cls-1" d="M568.74,235.06a124.37,124.37,0,0,0,59.09-59.88h-53a122.84,122.84,0,0,0,11.32-50.87A120.5,120.5,0,0,0,572.59,68h30.74c-1.83-3.54-3.85-7-6-10.32h22.26A126.2,126.2,0,0,0,514,0H314.32l27,57.65h-20.6l6.53,13.93H461.67c28.37,0,52.25,22.34,52.92,50.71A52,52,0,0,1,463,175.49l-143.09-.31L269.64,68h20.6l-4.83-10.32h32.37L290.77,0H176.11l-27,57.65h-20.6L73.28,175.49h53L92.71,247.08l-2.49,5.31H57.85L30.32,311.15H62.69L57.5,322.22h-53L0,331.89H132l39.74-84.81H274.52l39.73,84.81h132l-9.71-20.74H404.18l-30-64.07H484.06l2.39,5.11.39.2-.33-.09,0,.09H458.18l48,58.76h32.37l9.09,11.07h-53l7.92,9.67H648.18ZM205.3,175.5H152.47l1.51-.32h-1.51L196.65,80.9l39.85,85h48.33l4.9,9.55Z"/><path class="cls-1" d="M750.6,68.23h28.31L824,174.93H792.53L784.81,156H744l-7.57,18.92H705.5Zm25.74,64.93L764.53,103l-12,30.12Z"/><path class="cls-1" d="M852.93,69H903c16.2,0,27.4,4.24,34.51,11.51,6.21,6.05,9.39,14.22,9.39,24.67v.3c0,16.19-8.63,26.94-21.8,32.54l25.27,36.93H916.5l-21.34-32.09H882.3v32.09H852.93Zm48.74,50.86c10,0,15.74-4.85,15.74-12.56V107c0-8.32-6-12.56-15.89-12.56H882.3v25.43Z"/><path class="cls-1" d="M1006.27,94.71H974.48V69h92.94V94.71h-31.79v80.22h-29.36Z"/><path class="cls-1" d="M1099.51,69H1129v106h-29.52Z"/><path class="cls-1" d="M1167,69h84.76V94.71h-55.4v18h50.1v24.37h-50.1v37.84H1167Z"/><path class="cls-1" d="M1308.25,68.23h28.3l45.1,106.7h-31.48L1342.45,156h-40.86L1294,174.93h-30.88ZM1334,133.16,1322.17,103l-12,30.12Z"/><path class="cls-1" d="M1400.13,122.26V122c0-30.88,23.76-55.09,55.85-55.09,21.65,0,35.57,9.08,45,22.09l-22.09,17.11c-6.06-7.57-13-12.41-23.16-12.41-14.84,0-25.28,12.56-25.28,28V122c0,15.89,10.44,28.3,25.28,28.3,11,0,17.56-5.15,23.91-12.86l22.1,15.74c-10,13.77-23.46,23.91-46.92,23.91C1424.5,177.05,1400.13,153.89,1400.13,122.26Z"/><path class="cls-1" d="M1558.76,94.71H1527V69h92.93V94.71h-31.78v80.22h-29.37Z"/><path class="cls-1" d="M707.31,215.12h28.13c9.09,0,15.38,2.38,19.38,6.46,3.48,3.4,5.27,8,5.27,13.85v.17c0,9.1-4.85,15.13-12.24,18.28L762,274.61H743l-12-18H723.8v18H707.31Zm27.37,28.56c5.61,0,8.83-2.72,8.83-7.06v-.17c0-4.67-3.4-7-8.92-7H723.8v14.28Z"/><path class="cls-1" d="M798.33,214.7h15.89l25.33,59.91H821.87L817.54,264H794.59l-4.25,10.62H773Zm14.45,36.46-6.63-16.92-6.72,16.92Z"/><path class="cls-1" d="M849.92,245v-.17c0-17.34,13.34-30.94,31.35-30.94,12.16,0,20,5.1,25.25,12.41l-12.41,9.6c-3.4-4.25-7.31-7-13-7-8.33,0-14.2,7.06-14.2,15.73v.17c0,8.92,5.87,15.89,14.2,15.89,6.2,0,9.86-2.89,13.42-7.22l12.41,8.84c-5.61,7.73-13.17,13.42-26.35,13.42A30.2,30.2,0,0,1,849.92,245Z"/><path class="cls-1" d="M924.78,215.12h16.58v59.49H924.78Z"/><path class="cls-1" d="M962.69,215.12h15.38l24.48,31.45V215.12h16.32v59.49h-14.45L979,242v32.63H962.69Z"/><path class="cls-1" d="M1037.81,245v-.17c0-17.34,13.6-30.94,32-30.94,10.45,0,17.85,3.23,24.13,8.67l-9.68,11.64c-4.26-3.57-8.5-5.61-14.37-5.61-8.58,0-15.21,7.23-15.21,16.32v.17c0,9.6,6.71,16.49,16.15,16.49a16.82,16.82,0,0,0,9.51-2.46v-7.23h-11.72V239.85H1096v26.78a40.21,40.21,0,0,1-25.83,9.17C1051.67,275.8,1037.81,263.06,1037.81,245Z"/></svg>